<svg width="11" height="13" viewBox="0 0 11 13" fill="none" xmlns="http://www.w3.org/2000/svg">
<path d="M5.56821 1.75977C5.313 1.75977 5.06918 1.80762 4.83676 1.90332C4.60434 1.99902 4.40154 2.13802 4.22836 2.32031C4.04607 2.49349 3.90707 2.69629 3.81137 2.92871C3.71567 3.16113 3.66782 3.40495 3.66782 3.66016C3.66782 3.90625 3.71567 4.14551 3.81137 4.37793C3.90707 4.61035 4.04607 4.81771 4.22836 5C4.40154 5.17318 4.60434 5.30762 4.83676 5.40332C5.06918 5.49902 5.313 5.54688 5.56821 5.54688C5.82342 5.54688 6.06723 5.49902 6.29965 5.40332C6.53207 5.30762 6.73487 5.17318 6.90805 5C7.09034 4.81771 7.22934 4.61035 7.32504 4.37793C7.42075 4.14551 7.4686 3.90625 7.4686 3.66016C7.4686 3.40495 7.42075 3.16113 7.32504 2.92871C7.22934 2.69629 7.09034 2.49349 6.90805 2.32031C6.73487 2.13802 6.53207 1.99902 6.29965 1.90332C6.06723 1.80762 5.82342 1.75977 5.56821 1.75977ZM3.40805 1.5C3.69972 1.21745 4.0324 0.998698 4.4061 0.84375C4.7798 0.688802 5.16717 0.611328 5.56821 0.611328C5.96925 0.611328 6.35662 0.688802 6.73032 0.84375C7.10401 0.998698 7.4367 1.21745 7.72836 1.5C8.01092 1.78255 8.22967 2.11068 8.38461 2.48438C8.53956 2.85807 8.61703 3.25 8.61703 3.66016C8.61703 4.0612 8.53956 4.44857 8.38461 4.82227C8.22967 5.19596 8.01092 5.52865 7.72836 5.82031C7.4367 6.10286 7.10401 6.32161 6.73032 6.47656C6.35662 6.63151 5.96925 6.70898 5.56821 6.70898C5.16717 6.70898 4.7798 6.63151 4.4061 6.47656C4.0324 6.32161 3.69972 6.10286 3.40805 5.82031C3.1255 5.52865 2.90675 5.19596 2.7518 4.82227C2.59685 4.44857 2.51938 4.0612 2.51938 3.66016C2.51938 3.25 2.59685 2.85807 2.7518 2.48438C2.90675 2.11068 3.1255 1.78255 3.40805 1.5ZM2.09555 8.8418C2.56039 8.38607 3.0936 8.03288 3.69516 7.78223C4.29672 7.53158 4.92107 7.40625 5.56821 7.40625C6.21534 7.40625 6.83969 7.53158 7.44125 7.78223C8.04282 8.03288 8.57602 8.38607 9.04086 8.8418C9.49659 9.30664 9.84978 9.83984 10.1004 10.4414C10.3511 11.043 10.4764 11.6673 10.4764 12.3145C10.4764 12.4785 10.4194 12.6152 10.3055 12.7246C10.1916 12.834 10.0571 12.8887 9.90219 12.8887H1.23422C1.16131 12.8887 1.08839 12.875 1.01547 12.8477C0.942556 12.8203 0.878754 12.7793 0.824066 12.7246C0.778493 12.6699 0.739756 12.6084 0.707855 12.54C0.675954 12.4717 0.660004 12.3965 0.660004 12.3145C0.660004 11.6673 0.785329 11.043 1.03598 10.4414C1.28663 9.83984 1.63982 9.30664 2.09555 8.8418ZM5.56821 8.56836C5.0669 8.56836 4.58839 8.66406 4.13266 8.85547C3.67693 9.04688 3.27133 9.31576 2.91586 9.66211C2.63331 9.94466 2.40317 10.2637 2.22543 10.6191C2.0477 10.9746 1.92693 11.3483 1.86313 11.7402H9.27328C9.20948 11.3483 9.08871 10.9746 8.91098 10.6191C8.73325 10.2637 8.5031 9.94466 8.22055 9.66211C7.86508 9.31576 7.45948 9.04688 7.00375 8.85547C6.54802 8.66406 6.06951 8.56836 5.56821 8.56836Z" fill="#757C8E"/>
</svg>
