<svg width="15" height="15" viewBox="0 0 15 15" fill="none" xmlns="http://www.w3.org/2000/svg">
<path d="M1.9525 7.75C1.9525 6.96615 2.10289 6.22786 2.40367 5.53516C2.69534 4.84245 3.09866 4.23861 3.61363 3.72363C4.12861 3.20866 4.73245 2.80534 5.42516 2.51367C6.11786 2.21289 6.85615 2.0625 7.64 2.0625C8.42385 2.0625 9.16214 2.21289 9.85484 2.51367C10.5476 2.80534 11.1514 3.20866 11.6664 3.72363C12.1813 4.23861 12.5847 4.84245 12.8763 5.53516C13.1771 6.22786 13.3275 6.96615 13.3275 7.75C13.3275 8.53385 13.1771 9.27214 12.8763 9.96484C12.5847 10.6576 12.1813 11.2614 11.6664 11.7764C11.1514 12.2913 10.5476 12.6947 9.85484 12.9863C9.16214 13.2871 8.42385 13.4375 7.64 13.4375C6.85615 13.4375 6.11786 13.2871 5.42516 12.9863C4.73245 12.6947 4.12861 12.2913 3.61363 11.7764C3.09866 11.2614 2.69534 10.6576 2.40367 9.96484C2.10289 9.27214 1.9525 8.53385 1.9525 7.75ZM7.64 0.75C6.67385 0.75 5.76695 0.932292 4.9193 1.29688C4.06253 1.66146 3.31741 2.16048 2.68394 2.79395C2.05048 3.42741 1.55146 4.17253 1.18687 5.0293C0.822291 5.87695 0.639999 6.78385 0.639999 7.75C0.639999 8.71615 0.822291 9.62305 1.18687 10.4707C1.55146 11.3275 2.05048 12.0726 2.68394 12.7061C3.31741 13.3395 4.06253 13.8385 4.9193 14.2031C5.76695 14.5677 6.67385 14.75 7.64 14.75C8.60615 14.75 9.51305 14.5677 10.3607 14.2031C11.2175 13.8385 11.9626 13.3395 12.5961 12.7061C13.2295 12.0726 13.7285 11.3275 14.0931 10.4707C14.4577 9.62305 14.64 8.71615 14.64 7.75C14.64 6.78385 14.4577 5.87695 14.0931 5.0293C13.7285 4.17253 13.2295 3.42741 12.5961 2.79395C11.9626 2.16048 11.2175 1.66146 10.3607 1.29688C9.51305 0.932292 8.60615 0.75 7.64 0.75ZM8.29625 3.94922C8.29625 3.76693 8.23245 3.61198 8.10484 3.48438C7.97724 3.35677 7.82229 3.29297 7.64 3.29297C7.45771 3.29297 7.30276 3.35677 7.17516 3.48438C7.04755 3.61198 6.98375 3.76693 6.98375 3.94922V7.75C6.98375 7.8776 7.01565 7.99381 7.07945 8.09863C7.14325 8.20345 7.2344 8.2832 7.35289 8.33789L9.88219 9.60938C10.0462 9.69141 10.2149 9.7028 10.388 9.64355C10.5612 9.58431 10.6888 9.47266 10.7709 9.30859C10.8438 9.14453 10.8529 8.97819 10.7982 8.80957C10.7435 8.64095 10.6341 8.51562 10.4701 8.43359L8.29625 7.33984V3.94922Z" fill="#757C8E"/>
</svg>
