<svg width="16" height="15" viewBox="0 0 16 15" fill="none" xmlns="http://www.w3.org/2000/svg">
<path d="M15.6269 5.76311C15.6373 5.82561 15.6477 5.88291 15.6581 5.93499C15.6686 5.98707 15.6738 6.03916 15.6738 6.09124C15.6738 6.15374 15.666 6.21103 15.6503 6.26311C15.6347 6.3152 15.6165 6.36728 15.5956 6.41936C15.5644 6.47145 15.5331 6.52093 15.5019 6.5678C15.4706 6.61468 15.4342 6.65895 15.3925 6.70061L12.3613 9.65374L13.08 13.8256C13.0904 13.8881 13.0956 13.9454 13.0956 13.9975C13.0956 14.0496 13.0904 14.1069 13.08 14.1694C13.0696 14.2214 13.0514 14.2735 13.0253 14.3256C12.9993 14.3777 12.9759 14.4246 12.955 14.4662C12.9238 14.5183 12.8899 14.5652 12.8535 14.6069C12.817 14.6485 12.7727 14.685 12.7206 14.7162C12.6269 14.7892 12.5253 14.8386 12.416 14.8647C12.3066 14.8907 12.1946 14.8985 12.08 14.8881C12.0279 14.8777 11.9759 14.8621 11.9238 14.8412C11.8717 14.8204 11.8196 14.7996 11.7675 14.7787L8.00189 12.8256L4.23627 14.7787C4.1946 14.7996 4.14773 14.8204 4.09564 14.8412C4.04356 14.8621 3.99148 14.8777 3.93939 14.8881C3.82481 14.8985 3.71023 14.8907 3.59564 14.8647C3.48106 14.8386 3.3821 14.7892 3.29877 14.7162C3.24668 14.685 3.20241 14.6485 3.16595 14.6069C3.1295 14.5652 3.09564 14.5183 3.06439 14.4662C3.03314 14.4246 3.0071 14.3777 2.98627 14.3256C2.96543 14.2735 2.94981 14.2214 2.93939 14.1694C2.92898 14.1069 2.92377 14.0496 2.92377 13.9975C2.92377 13.9454 2.92898 13.8881 2.93939 13.8256L3.65814 9.65374L0.611267 6.70061C0.5696 6.65895 0.533142 6.61468 0.501892 6.5678C0.470642 6.52093 0.4446 6.47145 0.423767 6.41936C0.392517 6.36728 0.371684 6.3152 0.361267 6.26311C0.35085 6.21103 0.340434 6.15374 0.330017 6.09124C0.330017 6.03916 0.335225 5.98707 0.345642 5.93499C0.356059 5.88291 0.366475 5.82561 0.376892 5.76311C0.397725 5.71103 0.421163 5.65895 0.447205 5.60686C0.473246 5.55478 0.5071 5.50791 0.548767 5.46624C0.580017 5.42457 0.616475 5.38291 0.658142 5.34124C0.699809 5.29957 0.746684 5.26832 0.798767 5.24749C0.85085 5.21624 0.902934 5.1902 0.955017 5.16936C1.0071 5.14853 1.06439 5.13291 1.12689 5.12249L5.29877 4.51311L7.17377 0.747489C7.20502 0.695406 7.23627 0.643322 7.26752 0.591239C7.29877 0.539156 7.34043 0.497489 7.39252 0.466239C7.43418 0.424572 7.48106 0.388114 7.53314 0.356864C7.58523 0.325614 7.63731 0.304781 7.68939 0.294364C7.80398 0.252697 7.91595 0.231864 8.02533 0.231864C8.1347 0.231864 8.24148 0.252697 8.34564 0.294364C8.40814 0.304781 8.46543 0.325614 8.51752 0.356864C8.5696 0.388114 8.61648 0.424572 8.65814 0.466239C8.69981 0.507906 8.73887 0.554781 8.77533 0.606864C8.81179 0.658947 8.84564 0.711031 8.87689 0.763114L10.705 4.51311L14.8769 5.12249C14.9394 5.13291 14.9993 5.14853 15.0566 5.16936C15.1139 5.1902 15.1634 5.21624 15.205 5.24749C15.2571 5.27874 15.3066 5.31259 15.3535 5.34905C15.4003 5.38551 15.4394 5.42457 15.4706 5.46624C15.5019 5.51832 15.5305 5.5678 15.5566 5.61468C15.5826 5.66155 15.6061 5.71103 15.6269 5.76311ZM9.79877 5.76311L8.00189 2.16936L6.22064 5.77874L2.23627 6.35686L5.11127 9.15374L4.45502 13.1381L8.00189 11.2631L11.5488 13.1381L10.8925 9.15374L13.7675 6.35686L9.79877 5.76311Z" fill="#ED9700"/>
</svg>
