<svg width="16" height="15" viewBox="0 0 16 15" fill="none" xmlns="http://www.w3.org/2000/svg">
<path d="M7.67188 0.221854C7.72396 0.221854 7.77865 0.227063 7.83594 0.237479C7.89323 0.247896 7.94792 0.263521 8 0.284354C8.05208 0.294771 8.10417 0.315604 8.15625 0.346854C8.20833 0.378104 8.26042 0.414563 8.3125 0.456229C8.35417 0.497896 8.39323 0.544771 8.42969 0.596854C8.46615 0.648938 8.49479 0.701021 8.51562 0.753104L10.375 4.5031L14.5469 5.1281C14.6094 5.1281 14.6693 5.13852 14.7266 5.15935C14.7839 5.18019 14.8333 5.20623 14.875 5.23748C14.9271 5.26873 14.9766 5.30258 15.0234 5.33904C15.0703 5.3755 15.1094 5.41456 15.1406 5.45623C15.1719 5.50831 15.2005 5.5604 15.2266 5.61248C15.2526 5.66456 15.276 5.71665 15.2969 5.76873C15.3073 5.82081 15.3177 5.8729 15.3281 5.92498C15.3385 5.97706 15.3438 6.02915 15.3438 6.08123C15.3438 6.14373 15.3359 6.20102 15.3203 6.2531C15.3047 6.30519 15.2865 6.35727 15.2656 6.40935C15.2448 6.46144 15.2161 6.51092 15.1797 6.55779C15.1432 6.60467 15.1042 6.64373 15.0625 6.67498L12.0312 9.64373L12.75 13.8156C12.7604 13.8781 12.7656 13.9354 12.7656 13.9875C12.7656 14.0396 12.7604 14.0969 12.75 14.1594C12.7396 14.2114 12.7214 14.2635 12.6953 14.3156C12.6693 14.3677 12.6458 14.4146 12.625 14.4562C12.5938 14.5083 12.5599 14.5552 12.5234 14.5969C12.487 14.6385 12.4427 14.675 12.3906 14.7062C12.2969 14.7791 12.1953 14.8286 12.0859 14.8547C11.9766 14.8807 11.8646 14.8885 11.75 14.8781C11.6979 14.8677 11.6458 14.8521 11.5938 14.8312C11.5417 14.8104 11.4896 14.7896 11.4375 14.7687L7.67188 12.8156L3.90625 14.7687C3.86458 14.7896 3.81771 14.8104 3.76562 14.8312C3.71354 14.8521 3.66146 14.8677 3.60938 14.8781C3.49479 14.8885 3.38021 14.8807 3.26562 14.8547C3.15104 14.8286 3.05208 14.7791 2.96875 14.7062C2.91667 14.675 2.8724 14.6385 2.83594 14.5969C2.79948 14.5552 2.76562 14.5083 2.73438 14.4562C2.70312 14.4146 2.67708 14.3677 2.65625 14.3156C2.63542 14.2635 2.61979 14.2114 2.60938 14.1594C2.59896 14.0969 2.59375 14.0396 2.59375 13.9875C2.59375 13.9354 2.59896 13.8781 2.60938 13.8156L3.32812 9.64373L0.28125 6.6906C0.239583 6.64894 0.203125 6.60467 0.171875 6.55779C0.140625 6.51092 0.114583 6.46144 0.09375 6.40935C0.0625 6.35727 0.0416667 6.30519 0.03125 6.2531C0.0208333 6.20102 0.0104167 6.14373 0 6.08123C0 6.02915 0.00520833 5.97706 0.015625 5.92498C0.0260417 5.8729 0.0364583 5.82081 0.046875 5.76873C0.0677083 5.70623 0.0911458 5.64894 0.117188 5.59685C0.143229 5.54477 0.177083 5.4979 0.21875 5.45623C0.25 5.41456 0.286458 5.3729 0.328125 5.33123C0.369792 5.28956 0.416667 5.25831 0.46875 5.23748C0.520833 5.20623 0.572917 5.18019 0.625 5.15935C0.677083 5.13852 0.734375 5.1281 0.796875 5.1281L4.96875 4.5031L6.84375 0.737479C6.875 0.685396 6.90625 0.633313 6.9375 0.581229C6.96875 0.529146 7.01042 0.487479 7.0625 0.456229C7.10417 0.414563 7.15104 0.378104 7.20312 0.346854C7.25521 0.315604 7.30729 0.294771 7.35938 0.284354C7.41146 0.263521 7.46354 0.247896 7.51562 0.237479C7.56771 0.227063 7.61979 0.221854 7.67188 0.221854Z" fill="#ED9700"/>
</svg>
