<svg width="16" height="15" viewBox="0 0 16 15" fill="none" xmlns="http://www.w3.org/2000/svg">
<path d="M15.2812 5.75317C15.3021 5.80526 15.3177 5.85994 15.3281 5.91724C15.3385 5.97453 15.3438 6.02922 15.3438 6.0813C15.3438 6.13338 15.3359 6.18547 15.3203 6.23755C15.3047 6.28963 15.2865 6.34172 15.2656 6.3938C15.2344 6.44588 15.2005 6.49536 15.1641 6.54224C15.1276 6.58911 15.0885 6.63338 15.0469 6.67505L12.0156 9.61255L12.7344 13.8157C12.7448 13.8886 12.75 13.9589 12.75 14.0266C12.75 14.0943 12.7448 14.1646 12.7344 14.2375C12.7135 14.3 12.6875 14.3599 12.6562 14.4172C12.625 14.4745 12.5885 14.524 12.5469 14.5657C12.5052 14.6178 12.4583 14.6646 12.4062 14.7063C12.3542 14.748 12.2969 14.7844 12.2344 14.8157C12.1823 14.8365 12.125 14.8521 12.0625 14.8625C12 14.873 11.9375 14.8782 11.875 14.8782C11.8333 14.8782 11.7943 14.8756 11.7578 14.8704C11.7214 14.8652 11.6823 14.8625 11.6406 14.8625C11.6094 14.8417 11.5755 14.8261 11.5391 14.8157C11.5026 14.8053 11.4688 14.7896 11.4375 14.7688L7.67188 12.8313L3.92188 14.7688C3.89062 14.7896 3.85938 14.8053 3.82812 14.8157C3.79688 14.8261 3.76042 14.8417 3.71875 14.8625C3.6875 14.8625 3.65104 14.8652 3.60938 14.8704C3.56771 14.8756 3.53125 14.8782 3.5 14.8782C3.4375 14.8782 3.375 14.873 3.3125 14.8625C3.25 14.8521 3.1875 14.8365 3.125 14.8157C3.07292 14.7844 3.02083 14.748 2.96875 14.7063C2.91667 14.6646 2.86979 14.6178 2.82812 14.5657C2.77604 14.524 2.73438 14.4745 2.70312 14.4172C2.67188 14.3599 2.65104 14.3 2.64062 14.2375C2.61979 14.1646 2.60938 14.0943 2.60938 14.0266C2.60938 13.9589 2.61979 13.8886 2.64062 13.8157L3.32812 9.62817L0.296875 6.69067C0.255208 6.64901 0.216146 6.60474 0.179688 6.55786C0.143229 6.51099 0.109375 6.46151 0.078125 6.40942C0.0572917 6.36776 0.0390625 6.32088 0.0234375 6.2688C0.0078125 6.21672 0 6.16463 0 6.11255C0 6.05005 0.00520833 5.98755 0.015625 5.92505C0.0260417 5.86255 0.0416667 5.80526 0.0625 5.75317C0.0729167 5.69067 0.0911458 5.63599 0.117188 5.58911C0.143229 5.54224 0.177083 5.49797 0.21875 5.4563C0.25 5.40422 0.286458 5.35994 0.328125 5.32349C0.369792 5.28703 0.416667 5.25317 0.46875 5.22192C0.510417 5.20109 0.559896 5.18286 0.617188 5.16724C0.674479 5.15161 0.729167 5.13859 0.78125 5.12817L4.96875 4.5188L6.84375 0.721924C6.86458 0.690674 6.88802 0.65682 6.91406 0.620361C6.9401 0.583903 6.96875 0.550049 7 0.518799C7.03125 0.487549 7.0625 0.458903 7.09375 0.432861C7.125 0.40682 7.15625 0.383382 7.1875 0.362549C7.22917 0.341715 7.26823 0.320882 7.30469 0.300049C7.34115 0.279215 7.38021 0.26359 7.42188 0.253174C7.50521 0.23234 7.58854 0.221924 7.67188 0.221924C7.75521 0.221924 7.83854 0.23234 7.92188 0.253174C7.96354 0.26359 8.0026 0.276611 8.03906 0.292236C8.07552 0.307861 8.11458 0.32609 8.15625 0.346924C8.1875 0.378174 8.21875 0.40682 8.25 0.432861C8.28125 0.458903 8.3125 0.487549 8.34375 0.518799C8.375 0.550049 8.40365 0.583903 8.42969 0.620361C8.45573 0.65682 8.47917 0.695882 8.5 0.737549L10.375 4.5188L14.5625 5.12817C14.6146 5.12817 14.6667 5.13599 14.7188 5.15161C14.7708 5.16724 14.8177 5.18547 14.8594 5.2063C14.9115 5.23755 14.9583 5.27401 15 5.31567C15.0417 5.35734 15.0781 5.39901 15.1094 5.44067C15.151 5.49276 15.1849 5.54224 15.2109 5.58911C15.237 5.63599 15.2604 5.69067 15.2812 5.75317ZM9.4375 5.7688L7.67188 2.15942V11.2375L11.2188 13.1438L10.5625 9.15942L11.0625 8.67505L13.4219 6.36255L9.4375 5.7688Z" fill="#ED9700"/>
</svg>
